<svg xmlns="http://www.w3.org/2000/svg" viewBox="0 0 64 64" fill="none">
  <rect width="64" height="64" rx="16" fill="url(#g)"/>
  <path d="M14 38c0-8.5 5.8-16 14.5-19.2C25.2 14.5 21.4 10.5 17.2 10.5 12.4 10.5 8.5 14.5 8.5 19.6c0 7.5 5.3 14.4 12.7 17.4C14.8 37.3 14 37.6 14 38Z" fill="white" fill-opacity=".95"/>
  <path d="M32.5 16.5c10 0 18 8.5 18 18.9 0 1.1-.1 2.1-.3 3.1 4.5-2.4 7.6-7.1 7.6-12.7C57.8 18 50.4 12 41.5 12c-4.8 0-9.1 2.1-11.7 5.4.8-.3 1.7-.6 2.7-.9Z" fill="#F6E7A8"/>
  <path d="M22.5 35c0 9 6.9 16.5 15.4 16.5 5.9 0 10.9-3.4 13.6-8.5-2.7 1-5.6 1.6-8.6 1.6-11.1 0-20.4-8.5-20.4-19.1 0-1.4.2-2.7.5-4-.3 1.1-.5 2.3-.5 3.5V35Z" fill="white" fill-opacity=".9"/>
  <defs>
    <linearGradient id="g" x1="8" y1="4" x2="56" y2="60" gradientUnits="userSpaceOnUse">
      <stop stop-color="#1a6b4a"/>
      <stop offset=".55" stop-color="#2d9b6a"/>
      <stop offset="1" stop-color="#e8a317"/>
    </linearGradient>
  </defs>
</svg>
